PathFileType  4	(X/Y/Z) C:\Users\antoi\Documents\MyRepositories\mobilecap\ResultsAnalysis
DataRate	CameraRate	NumFrames	NumMarkers	Units	OrigDataRate	OrigDataStartFrame	OrigNumFrames
100.0	100.0	5	51	mm	100.0	218	249
Frame#	Time	r_knee			r_shank_antsup			r_ankle			r_calc			r_5meta			r_toe			L_knee			L_shank_antsup			L_ankle			L_calc			L_5meta			L_toe			r_sh2			r_sh3			r_sh4			L_sh2			L_sh3			r_thigh1			r_thigh2			r_thigh3			r_thigh4			r_thigh5			L_thigh1			L_thigh2			L_thigh3			L_thigh4			r.ASIS			r.PSIS			L.ASIS			L.PSIS			C7			R_Shoulder			L_Shoulder			R_Sternum			L_Sternum			R_humerus			R_elbow_med			R_elbow_lat			R_forearm			R_wrist_radius			R_wrist_ulna			L_humerus			L_elbow_med			L_elbow_lat			L_forearm			L_wrist_radius			L_wrist_ulna			R_HJC			L_HJC			R_HJC_reg			L_HJC_reg			
		X1	Y1	Z1	X2	Y2	Z2	X3	Y3	Z3	X4	Y4	Z4	X5	Y5	Z5	X6	Y6	Z6	X7	Y7	Z7	X8	Y8	Z8	X9	Y9	Z9	X10	Y10	Z10	X11	Y11	Z11	X12	Y12	Z12	X13	Y13	Z13	X14	Y14	Z14	X15	Y15	Z15	X16	Y16	Z16	X17	Y17	Z17	X18	Y18	Z18	X19	Y19	Z19	X20	Y20	Z20	X21	Y21	Z21	X22	Y22	Z22	X23	Y23	Z23	X24	Y24	Z24	X25	Y25	Z25	X26	Y26	Z26	X27	Y27	Z27	X28	Y28	Z28	X29	Y29	Z29	X30	Y30	Z30	X31	Y31	Z31	X32	Y32	Z32	X33	Y33	Z33	X34	Y34	Z34	X35	Y35	Z35	X36	Y36	Z36	X37	Y37	Z37	X38	Y38	Z38	X39	Y39	Z39	X40	Y40	Z40	X41	Y41	Z41	X42	Y42	Z42	X43	Y43	Z43	X44	Y44	Z44	X45	Y45	Z45	X46	Y46	Z46	X47	Y47	Z47	X48	Y48	Z48	X49	Y49	Z49	X50	Y50	Z50	X51	Y51	Z51	

218	2.17000000	-249.53374	797.20084	-429.74304	-255.33680	727.02767	-406.11024	-269.05508	417.73970	-445.52146	-322.05102	416.75808	-507.56351	-204.36867	322.16247	-404.46917	-140.37589	328.68987	-436.99856	-255.04780	805.86195	-742.83720	-239.09099	744.12360	-757.63110	-289.42370	431.67197	-753.63099	-347.67583	418.19919	-687.22501	-226.90877	346.01698	-797.64107	-159.74476	352.44287	-762.17680	-258.39963	615.82344	-401.22583	-321.88771	726.79310	-440.04357	-329.49019	610.68689	-442.90259	-327.99896	755.46685	-748.64908	-331.33142	634.40415	-762.09643	-172.24667	1103.67543	-441.87848	-166.70126	991.87385	-430.19003	-214.65929	969.11910	-389.55643	-270.63121	1105.24247	-384.05993	-269.58525	986.56895	-389.61061	-177.30426	1087.63079	-751.23255	-176.96717	949.41107	-752.66163	-292.43902	1089.82727	-770.03840	-285.19103	948.13556	-761.47382	-182.35894	1257.00412	-449.54279	-354.39255	1290.60550	-529.06921	-167.78958	1266.12254	-698.43172	-351.40820	1293.25483	-632.41863	-284.58230	1742.80447	-556.48337	-205.53362	1708.21102	-407.50563	-216.48539	1696.64070	-717.01020	-151.52080	1673.27499	-541.33148	-155.23669	1672.36911	-583.91979	-255.92651	1485.89254	-302.20834	-342.42321	1404.77823	-336.45073	-310.43752	1421.18338	-271.97635	-292.03395	1299.31186	-248.89485	-303.19983	1180.88409	-238.63595	-342.21683	1186.67425	-220.01808	-214.88113	1577.19715	-784.03707	-334.76192	1384.76401	-766.34148	-333.81305	1403.38295	-830.24769	-252.93089	1315.47295	-847.62521	-189.65318	1208.93001	-831.16005	-217.70098	1187.79516	-844.10486	-249.66610	1187.49739	-480.12578	-235.52214	1197.78111	-679.65357	-245.28248	1184.45002	-488.29755	-240.52928	1188.66990	-652.83111	
219	2.18000000	-250.34394	794.61942	-428.24100	-256.40434	724.33960	-404.81299	-270.62358	414.71573	-443.78710	-323.92058	414.91238	-505.65577	-206.64702	317.66643	-404.46986	-142.78710	324.50704	-436.94199	-252.96303	803.36333	-744.50251	-236.36866	741.11913	-759.11668	-291.05129	429.80200	-755.65793	-351.65060	416.99785	-691.32402	-228.52604	343.97936	-798.36271	-162.44698	348.84558	-760.65560	-259.69034	613.02563	-399.47096	-322.87942	724.24737	-438.81603	-330.72142	608.08705	-441.63841	-325.23642	753.80047	-751.02247	-330.47212	632.63767	-764.48140	-174.83229	1101.44954	-440.14165	-168.43722	989.70179	-428.03983	-216.62780	966.61217	-387.48974	-273.22370	1102.18442	-382.15813	-271.53267	983.87215	-388.28254	-178.91278	1086.01813	-753.17753	-177.85498	947.68576	-755.46910	-294.95096	1087.08111	-768.33148	-286.31270	945.49354	-760.74645	-183.98518	1254.30311	-447.98380	-356.00711	1287.73899	-528.59121	-168.86901	1263.33835	-697.83351	-352.40273	1290.93177	-631.71926	-287.00036	1740.11268	-556.02658	-207.27097	1705.72280	-406.91572	-218.06616	1692.80511	-716.38236	-153.83854	1670.56392	-540.38333	-158.34760	1669.00726	-582.00327	-258.78698	1481.99861	-304.19000	-344.76201	1401.60072	-340.83936	-314.06475	1417.03446	-275.73404	-296.34067	1295.20648	-253.06139	-307.92614	1176.68340	-243.86147	-347.41006	1182.48174	-226.11744	-216.78443	1571.84647	-782.47604	-336.29208	1379.33811	-763.19821	-335.09212	1398.03360	-826.67681	-256.97586	1308.23947	-845.47533	-197.08663	1199.76266	-831.03192	-226.39342	1179.32437	-842.02340	-251.32774	1184.78058	-479.28826	-236.64319	1195.12780	-678.77347	-246.92931	1180.69797	-487.73845	-241.15860	1185.81017	-652.86811	
220	2.19000000	-250.91571	791.06953	-426.61477	-256.90575	720.83752	-403.47296	-272.80629	411.04429	-441.19787	-326.99032	412.35160	-502.60919	-209.45695	312.38601	-404.38984	-146.06468	319.01242	-437.63896	-250.69058	799.92234	-746.23175	-233.38124	737.27531	-760.72721	-292.93012	427.13967	-757.82901	-355.88845	415.73297	-695.54869	-231.03820	340.37034	-798.61188	-166.05875	343.46851	-758.78864	-260.83482	609.52432	-397.58677	-323.33462	720.96428	-437.32167	-331.83350	604.87551	-439.85440	-322.15224	751.33625	-754.12376	-329.36854	630.05331	-767.27683	-177.27732	1098.18733	-437.86443	-170.10971	986.54036	-425.12932	-219.08809	963.19158	-385.40693	-276.31163	1098.03160	-380.81263	-273.91391	980.21299	-387.50372	-180.91890	1083.64493	-755.20138	-178.96724	945.13660	-757.76704	-297.50918	1083.38015	-766.33249	-287.36394	941.93812	-760.32213	-185.58362	1250.70392	-446.35439	-357.58116	1283.43551	-528.09275	-169.83103	1259.45542	-697.04077	-353.48994	1286.94687	-631.12134	-289.51906	1736.35080	-555.70523	-209.59276	1702.27355	-406.15933	-219.72960	1688.19091	-715.83345	-156.49620	1667.04346	-539.39526	-160.15331	1665.68571	-581.72422	-262.00387	1477.28241	-305.74421	-347.41170	1397.46950	-344.35448	-317.68275	1411.94850	-278.95237	-300.21126	1290.10465	-257.01276	-311.63273	1171.56432	-248.86684	-351.59039	1177.12088	-231.99248	-218.63106	1565.71940	-781.05900	-338.07659	1373.31599	-761.54299	-336.02188	1392.01470	-824.54803	-260.26328	1300.84098	-843.94155	-203.56516	1190.84150	-831.30774	-233.96714	1171.00789	-840.59273	-252.73838	1180.95043	-478.29082	-237.44986	1191.16567	-677.73734	-248.23668	1176.04220	-486.82750	-241.65954	1181.68667	-652.48152	
221	2.20000000	-251.34126	786.58322	-424.89766	-256.81602	716.29720	-401.80383	-275.60132	406.59831	-438.26799	-331.13362	408.69417	-498.87741	-212.70421	306.59711	-404.05301	-149.95350	312.70791	-438.66761	-248.40935	795.48618	-747.98843	-230.43228	732.47368	-762.28850	-295.19892	423.53821	-759.97829	-360.20826	413.72475	-699.61387	-234.10579	335.62251	-798.88617	-170.27289	337.15716	-757.05530	-261.77189	605.05105	-395.78539	-323.35251	716.85062	-435.50972	-332.93539	600.91877	-437.54781	-318.88520	747.97379	-757.77587	-328.06071	626.67435	-770.48152	-179.37179	1093.76389	-434.94062	-171.73691	982.14760	-421.82800	-222.06511	958.77782	-383.67481	-279.60585	1093.11135	-380.28513	-276.67721	975.45931	-387.09036	-183.18577	1080.35675	-756.75216	-179.93710	941.71130	-759.72697	-299.99959	1078.65514	-764.03912	-288.27776	937.40089	-760.17637	-187.14201	1246.08271	-444.72854	-359.01757	1277.86210	-527.59405	-170.68965	1254.54824	-695.96046	-354.59142	1281.39829	-630.52310	-292.23501	1731.79618	-555.16646	-212.47691	1697.83187	-405.26533	-221.70492	1682.81961	-715.39081	-159.32150	1662.61065	-538.40822	-161.77150	1661.70832	-581.92349	-265.48175	1471.66202	-307.13191	-350.24566	1392.15832	-347.23923	-321.30014	1405.84881	-281.74031	-303.56157	1283.96547	-260.69858	-314.40673	1165.38717	-253.67824	-354.79677	1170.52847	-237.64286	-220.27222	1558.95149	-779.67440	-339.95043	1366.88115	-760.52568	-336.65435	1385.36028	-823.36481	-263.16161	1293.16940	-843.16353	-209.25544	1181.98883	-831.89155	-240.52770	1162.65876	-839.88726	-253.92925	1175.98507	-477.16650	-237.97970	1185.99107	-676.57181	-249.32021	1170.69659	-485.53891	-242.18101	1176.39959	-651.54970	
222	2.21000000	-251.58499	781.02981	-423.12561	-256.34156	710.49143	-399.87960	-278.95242	401.23966	-435.59582	-336.14141	403.72488	-494.84792	-216.22256	300.45036	-403.31749	-154.33948	305.88744	-439.53687	-246.21514	790.18134	-749.97891	-227.59920	726.49371	-763.69142	-298.10657	418.93396	-761.88917	-364.72002	410.40015	-703.28752	-237.52989	330.08411	-799.27246	-174.76296	330.66062	-755.74123	-262.65832	599.33004	-394.10546	-323.12790	711.84993	-433.35727	-334.30876	596.22306	-434.64815	-315.68242	743.65405	-761.61612	-326.74228	622.50923	-774.04708	-181.07624	1088.10909	-431.57974	-173.49595	976.52115	-418.24668	-225.27540	953.16310	-381.89796	-282.92719	1087.47446	-380.45602	-279.71985	969.57238	-386.70460	-185.37250	1075.99175	-757.65038	-180.53352	937.37607	-761.66143	-302.23563	1072.91877	-761.86101	-288.92933	931.89671	-760.23741	-188.65431	1240.38512	-443.11017	-360.25842	1271.15824	-526.95116	-171.51106	1248.61524	-694.63341	-355.70204	1274.58677	-629.97203	-295.20614	1726.24425	-554.57337	-215.96689	1692.40345	-404.22331	-224.05588	1676.67063	-715.07047	-162.13804	1657.15034	-537.46407	-164.40261	1656.26015	-581.22297	-269.20067	1465.18066	-308.24280	-353.11948	1385.65381	-349.74737	-324.86122	1398.76501	-284.11386	-306.38380	1276.89992	-264.02911	-316.34803	1158.18692	-258.22145	-356.98399	1162.88309	-242.69847	-221.66251	1551.69047	-778.34501	-341.71643	1360.16297	-759.75424	-337.03224	1378.09877	-822.66801	-265.89579	1285.19165	-843.06633	-214.26025	1173.01673	-832.55275	-246.08008	1154.28047	-839.99557	-254.99148	1169.91504	-475.95000	-238.37805	1179.71020	-675.31154	-250.19563	1164.52804	-483.95624	-242.84359	1170.06016	-650.18096	
